<?xml version="1.0" encoding="UTF-8" standalone="no"?>
<!DOCTYPE svg PUBLIC "-//W3C//DTD SVG 1.1//EN"
        "http://www.w3.org/Graphics/SVG/1.1/DTD/svg11.dtd">
<!-- Generated by graphviz version 11.0.0 (20240428.1522)
 -->
<!-- Pages: 1 -->
<svg width="288pt" height="288pt"
     viewBox="0.00 0.00 288.00 288.00" xmlns="http://www.w3.org/2000/svg" xmlns:xlink="http://www.w3.org/1999/xlink">
    <g id="graph0" class="graph" transform="scale(0.455005 0.455005) rotate(0) translate(4 628.96)">
        <polygon fill="#1f1f1f" stroke="none" points="-4,4 -4,-628.96 628.96,-628.96 628.96,4 -4,4"/>
        <!-- 7_4 -->
        <g id="node1" class="node">
            <title>7_4</title>
            <polygon fill="Moccasin" stroke="Moccasin" points="408.96,-624.96 338.4,-624.96 338.4,-554.4 408.96,-554.4 408.96,-624.96"/>
        </g>
        <!-- 7_5 -->
        <g id="node60" class="node">
            <title>7_5</title>
            <polygon fill="SandyBrown" stroke="SandyBrown" points="480.96,-624.96 410.4,-624.96 410.4,-554.4 480.96,-554.4 480.96,-624.96"/>
        </g>
        <!-- 7_4&#45;&#45;7_5 -->
        <!-- 4_0 -->
        <g id="node2" class="node">
            <title>4_0</title>
            <polygon fill="SandyBrown" stroke="SandyBrown" points="120.96,-408.96 50.4,-408.96 50.4,-338.4 120.96,-338.4 120.96,-408.96"/>
        </g>
        <!-- 5_0 -->
        <g id="node37" class="node">
            <title>5_0</title>
            <polygon fill="Moccasin" stroke="Moccasin" points="120.96,-480.96 50.4,-480.96 50.4,-410.4 120.96,-410.4 120.96,-480.96"/>
        </g>
        <!-- 4_0&#45;&#45;5_0 -->
        <!-- 4_1 -->
        <g id="node43" class="node">
            <title>4_1</title>
            <polygon fill="Moccasin" stroke="Moccasin" points="192.96,-408.96 122.4,-408.96 122.4,-338.4 192.96,-338.4 192.96,-408.96"/>
        </g>
        <!-- 4_0&#45;&#45;4_1 -->
        <!-- 1_2 -->
        <g id="node3" class="node">
            <title>1_2</title>
            <polygon fill="Moccasin" stroke="Moccasin" points="264.96,-192.96 194.4,-192.96 194.4,-122.4 264.96,-122.4 264.96,-192.96"/>
        </g>
        <!-- 1_3 -->
        <g id="node16" class="node">
            <title>1_3</title>
            <polygon fill="SandyBrown" stroke="SandyBrown" points="336.96,-192.96 266.4,-192.96 266.4,-122.4 336.96,-122.4 336.96,-192.96"/>
        </g>
        <!-- 1_2&#45;&#45;1_3 -->
        <!-- 2_2 -->
        <g id="node62" class="node">
            <title>2_2</title>
            <polygon fill="SandyBrown" stroke="SandyBrown" points="264.96,-264.96 194.4,-264.96 194.4,-194.4 264.96,-194.4 264.96,-264.96"/>
        </g>
        <!-- 1_2&#45;&#45;2_2 -->
        <!-- 4_2 -->
        <g id="node4" class="node">
            <title>4_2</title>
            <polygon fill="SandyBrown" stroke="SandyBrown" points="264.96,-408.96 194.4,-408.96 194.4,-338.4 264.96,-338.4 264.96,-408.96"/>
        </g>
        <!-- 4_3 -->
        <g id="node40" class="node">
            <title>4_3</title>
            <polygon fill="Moccasin" stroke="Moccasin" points="336.96,-408.96 266.4,-408.96 266.4,-338.4 336.96,-338.4 336.96,-408.96"/>
        </g>
        <!-- 4_2&#45;&#45;4_3 -->
        <!-- 5_2 -->
        <g id="node41" class="node">
            <title>5_2</title>
            <polygon fill="Moccasin" stroke="Moccasin" points="264.96,-480.96 194.4,-480.96 194.4,-410.4 264.96,-410.4 264.96,-480.96"/>
        </g>
        <!-- 4_2&#45;&#45;5_2 -->
        <!-- 7_1 -->
        <g id="node5" class="node">
            <title>7_1</title>
            <polygon fill="SandyBrown" stroke="SandyBrown" points="192.96,-624.96 122.4,-624.96 122.4,-554.4 192.96,-554.4 192.96,-624.96"/>
        </g>
        <!-- 7_2 -->
        <g id="node23" class="node">
            <title>7_2</title>
            <polygon fill="Moccasin" stroke="Moccasin" points="264.96,-624.96 194.4,-624.96 194.4,-554.4 264.96,-554.4 264.96,-624.96"/>
        </g>
        <!-- 7_1&#45;&#45;7_2 -->
        <!-- 3_5 -->
        <g id="node6" class="node">
            <title>3_5</title>
            <polygon fill="SandyBrown" stroke="SandyBrown" points="480.96,-336.96 410.4,-336.96 410.4,-266.4 480.96,-266.4 480.96,-336.96"/>
        </g>
        <!-- 4_5 -->
        <g id="node14" class="node">
            <title>4_5</title>
            <polygon fill="Moccasin" stroke="Moccasin" points="480.96,-408.96 410.4,-408.96 410.4,-338.4 480.96,-338.4 480.96,-408.96"/>
        </g>
        <!-- 3_5&#45;&#45;4_5 -->
        <!-- 3_6 -->
        <g id="node55" class="node">
            <title>3_6</title>
            <polygon fill="Moccasin" stroke="Moccasin" points="552.96,-336.96 482.4,-336.96 482.4,-266.4 552.96,-266.4 552.96,-336.96"/>
        </g>
        <!-- 3_5&#45;&#45;3_6 -->
        <!-- 3_0 -->
        <g id="node7" class="node">
            <title>3_0</title>
            <polygon fill="Moccasin" stroke="Moccasin" points="120.96,-336.96 50.4,-336.96 50.4,-266.4 120.96,-266.4 120.96,-336.96"/>
        </g>
        <!-- 3_0&#45;&#45;4_0 -->
        <!-- 3_1 -->
        <g id="node20" class="node">
            <title>3_1</title>
            <polygon fill="SandyBrown" stroke="SandyBrown" points="192.96,-336.96 122.4,-336.96 122.4,-266.4 192.96,-266.4 192.96,-336.96"/>
        </g>
        <!-- 3_0&#45;&#45;3_1 -->
        <!-- 1_7 -->
        <g id="node8" class="node">
            <title>1_7</title>
            <polygon fill="SandyBrown" stroke="SandyBrown" points="624.96,-192.96 554.4,-192.96 554.4,-122.4 624.96,-122.4 624.96,-192.96"/>
        </g>
        <!-- 2_7 -->
        <g id="node9" class="node">
            <title>2_7</title>
            <polygon fill="Moccasin" stroke="Moccasin" points="624.96,-264.96 554.4,-264.96 554.4,-194.4 624.96,-194.4 624.96,-264.96"/>
        </g>
        <!-- 1_7&#45;&#45;2_7 -->
        <!-- 3_7 -->
        <g id="node33" class="node">
            <title>3_7</title>
            <polygon fill="SandyBrown" stroke="SandyBrown" points="624.96,-336.96 554.4,-336.96 554.4,-266.4 624.96,-266.4 624.96,-336.96"/>
        </g>
        <!-- 2_7&#45;&#45;3_7 -->
        <!-- 2_0 -->
        <g id="node10" class="node">
            <title>2_0</title>
            <polygon fill="SandyBrown" stroke="SandyBrown" points="120.96,-264.96 50.4,-264.96 50.4,-194.4 120.96,-194.4 120.96,-264.96"/>
        </g>
        <!-- 2_0&#45;&#45;3_0 -->
        <!-- 2_1 -->
        <g id="node12" class="node">
            <title>2_1</title>
            <polygon fill="Moccasin" stroke="Moccasin" points="192.96,-264.96 122.4,-264.96 122.4,-194.4 192.96,-194.4 192.96,-264.96"/>
        </g>
        <!-- 2_0&#45;&#45;2_1 -->
        <!-- 0_0 -->
        <g id="node11" class="node">
            <title>0_0</title>
            <polygon fill="SandyBrown" stroke="SandyBrown" points="120.96,-120.96 50.4,-120.96 50.4,-50.4 120.96,-50.4 120.96,-120.96"/>
        </g>
        <!-- 1_0 -->
        <g id="node21" class="node">
            <title>1_0</title>
            <polygon fill="Moccasin" stroke="Moccasin" points="120.96,-192.96 50.4,-192.96 50.4,-122.4 120.96,-122.4 120.96,-192.96"/>
        </g>
        <!-- 0_0&#45;&#45;1_0 -->
        <!-- 0_1 -->
        <g id="node36" class="node">
            <title>0_1</title>
            <polygon fill="Moccasin" stroke="Moccasin" points="192.96,-120.96 122.4,-120.96 122.4,-50.4 192.96,-50.4 192.96,-120.96"/>
        </g>
        <!-- 0_0&#45;&#45;0_1 -->
        <!-- 2_1&#45;&#45;3_1 -->
        <!-- 2_1&#45;&#45;2_2 -->
        <!-- 6_3 -->
        <g id="node13" class="node">
            <title>6_3</title>
            <polygon fill="Moccasin" stroke="Moccasin" points="336.96,-552.96 266.4,-552.96 266.4,-482.4 336.96,-482.4 336.96,-552.96"/>
        </g>
        <!-- 7_3 -->
        <g id="node27" class="node">
            <title>7_3</title>
            <polygon fill="SandyBrown" stroke="SandyBrown" points="336.96,-624.96 266.4,-624.96 266.4,-554.4 336.96,-554.4 336.96,-624.96"/>
        </g>
        <!-- 6_3&#45;&#45;7_3 -->
        <!-- 6_4 -->
        <g id="node31" class="node">
            <title>6_4</title>
            <polygon fill="SandyBrown" stroke="SandyBrown" points="408.96,-552.96 338.4,-552.96 338.4,-482.4 408.96,-482.4 408.96,-552.96"/>
        </g>
        <!-- 6_3&#45;&#45;6_4 -->
        <!-- 5_5 -->
        <g id="node18" class="node">
            <title>5_5</title>
            <polygon fill="SandyBrown" stroke="SandyBrown" points="480.96,-480.96 410.4,-480.96 410.4,-410.4 480.96,-410.4 480.96,-480.96"/>
        </g>
        <!-- 4_5&#45;&#45;5_5 -->
        <!-- 4_6 -->
        <g id="node51" class="node">
            <title>4_6</title>
            <polygon fill="SandyBrown" stroke="SandyBrown" points="552.96,-408.96 482.4,-408.96 482.4,-338.4 552.96,-338.4 552.96,-408.96"/>
        </g>
        <!-- 4_5&#45;&#45;4_6 -->
        <!-- 5_4 -->
        <g id="node15" class="node">
            <title>5_4</title>
            <polygon fill="Moccasin" stroke="Moccasin" points="408.96,-480.96 338.4,-480.96 338.4,-410.4 408.96,-410.4 408.96,-480.96"/>
        </g>
        <!-- 5_4&#45;&#45;5_5 -->
        <!-- 5_4&#45;&#45;6_4 -->
        <!-- 1_4 -->
        <g id="node25" class="node">
            <title>1_4</title>
            <polygon fill="Moccasin" stroke="Moccasin" points="408.96,-192.96 338.4,-192.96 338.4,-122.4 408.96,-122.4 408.96,-192.96"/>
        </g>
        <!-- 1_3&#45;&#45;1_4 -->
        <!-- 2_3 -->
        <g id="node63" class="node">
            <title>2_3</title>
            <polygon fill="Moccasin" stroke="Moccasin" points="336.96,-264.96 266.4,-264.96 266.4,-194.4 336.96,-194.4 336.96,-264.96"/>
        </g>
        <!-- 1_3&#45;&#45;2_3 -->
        <!-- 7_7 -->
        <g id="node17" class="node">
            <title>7_7</title>
            <polygon fill="SandyBrown" stroke="SandyBrown" points="624.96,-624.96 554.4,-624.96 554.4,-554.4 624.96,-554.4 624.96,-624.96"/>
        </g>
        <!-- 6_5 -->
        <g id="node35" class="node">
            <title>6_5</title>
            <polygon fill="Moccasin" stroke="Moccasin" points="480.96,-552.96 410.4,-552.96 410.4,-482.4 480.96,-482.4 480.96,-552.96"/>
        </g>
        <!-- 5_5&#45;&#45;6_5 -->
        <!-- 5_6 -->
        <g id="node59" class="node">
            <title>5_6</title>
            <polygon fill="Moccasin" stroke="Moccasin" points="552.96,-480.96 482.4,-480.96 482.4,-410.4 552.96,-410.4 552.96,-480.96"/>
        </g>
        <!-- 5_5&#45;&#45;5_6 -->
        <!-- 3_2 -->
        <g id="node19" class="node">
            <title>3_2</title>
            <polygon fill="Moccasin" stroke="Moccasin" points="264.96,-336.96 194.4,-336.96 194.4,-266.4 264.96,-266.4 264.96,-336.96"/>
        </g>
        <!-- 3_2&#45;&#45;4_2 -->
        <!-- 3_3 -->
        <g id="node34" class="node">
            <title>3_3</title>
            <polygon fill="SandyBrown" stroke="SandyBrown" points="336.96,-336.96 266.4,-336.96 266.4,-266.4 336.96,-266.4 336.96,-336.96"/>
        </g>
        <!-- 3_2&#45;&#45;3_3 -->
        <!-- 3_1&#45;&#45;3_2 -->
        <!-- 3_1&#45;&#45;4_1 -->
        <!-- 1_0&#45;&#45;2_0 -->
        <!-- 1_1 -->
        <g id="node50" class="node">
            <title>1_1</title>
            <polygon fill="SandyBrown" stroke="SandyBrown" points="192.96,-192.96 122.4,-192.96 122.4,-122.4 192.96,-122.4 192.96,-192.96"/>
        </g>
        <!-- 1_0&#45;&#45;1_1 -->
        <!-- 6_2 -->
        <g id="node22" class="node">
            <title>6_2</title>
            <polygon fill="SandyBrown" stroke="SandyBrown" points="264.96,-552.96 194.4,-552.96 194.4,-482.4 264.96,-482.4 264.96,-552.96"/>
        </g>
        <!-- 6_2&#45;&#45;6_3 -->
        <!-- 6_2&#45;&#45;7_2 -->
        <!-- 7_2&#45;&#45;7_3 -->
        <!-- 5_7 -->
        <g id="node24" class="node">
            <title>5_7</title>
            <polygon fill="SandyBrown" stroke="SandyBrown" points="624.96,-480.96 554.4,-480.96 554.4,-410.4 624.96,-410.4 624.96,-480.96"/>
        </g>
        <!-- 6_7 -->
        <g id="node39" class="node">
            <title>6_7</title>
            <polygon fill="Moccasin" stroke="Moccasin" points="624.96,-552.96 554.4,-552.96 554.4,-482.4 624.96,-482.4 624.96,-552.96"/>
        </g>
        <!-- 5_7&#45;&#45;6_7 -->
        <!-- 1_5 -->
        <g id="node30" class="node">
            <title>1_5</title>
            <polygon fill="SandyBrown" stroke="SandyBrown" points="480.96,-192.96 410.4,-192.96 410.4,-122.4 480.96,-122.4 480.96,-192.96"/>
        </g>
        <!-- 1_4&#45;&#45;1_5 -->
        <!-- 2_4 -->
        <g id="node47" class="node">
            <title>2_4</title>
            <polygon fill="SandyBrown" stroke="SandyBrown" points="408.96,-264.96 338.4,-264.96 338.4,-194.4 408.96,-194.4 408.96,-264.96"/>
        </g>
        <!-- 1_4&#45;&#45;2_4 -->
        <!-- 4_7 -->
        <g id="node26" class="node">
            <title>4_7</title>
            <polygon fill="Moccasin" stroke="Moccasin" points="624.96,-408.96 554.4,-408.96 554.4,-338.4 624.96,-338.4 624.96,-408.96"/>
        </g>
        <!-- 4_7&#45;&#45;5_7 -->
        <!-- 7_3&#45;&#45;7_4 -->
        <!-- 7_0 -->
        <g id="node28" class="node">
            <title>7_0</title>
            <polygon fill="Moccasin" stroke="Moccasin" points="120.96,-624.96 50.4,-624.96 50.4,-554.4 120.96,-554.4 120.96,-624.96"/>
        </g>
        <!-- 7_0&#45;&#45;7_1 -->
        <!-- 0_5 -->
        <g id="node29" class="node">
            <title>0_5</title>
            <polygon fill="Moccasin" stroke="Moccasin" points="480.96,-120.96 410.4,-120.96 410.4,-50.4 480.96,-50.4 480.96,-120.96"/>
        </g>
        <!-- 0_5&#45;&#45;1_5 -->
        <!-- 0_6 -->
        <g id="node61" class="node">
            <title>0_6</title>
            <polygon fill="SandyBrown" stroke="SandyBrown" points="552.96,-120.96 482.4,-120.96 482.4,-50.4 552.96,-50.4 552.96,-120.96"/>
        </g>
        <!-- 0_5&#45;&#45;0_6 -->
        <!-- 1_6 -->
        <g id="node45" class="node">
            <title>1_6</title>
            <polygon fill="Moccasin" stroke="Moccasin" points="552.96,-192.96 482.4,-192.96 482.4,-122.4 552.96,-122.4 552.96,-192.96"/>
        </g>
        <!-- 1_5&#45;&#45;1_6 -->
        <!-- 2_5 -->
        <g id="node52" class="node">
            <title>2_5</title>
            <polygon fill="Moccasin" stroke="Moccasin" points="480.96,-264.96 410.4,-264.96 410.4,-194.4 480.96,-194.4 480.96,-264.96"/>
        </g>
        <!-- 1_5&#45;&#45;2_5 -->
        <!-- 6_4&#45;&#45;7_4 -->
        <!-- 6_4&#45;&#45;6_5 -->
        <!-- 5_3 -->
        <g id="node32" class="node">
            <title>5_3</title>
            <polygon fill="SandyBrown" stroke="SandyBrown" points="336.96,-480.96 266.4,-480.96 266.4,-410.4 336.96,-410.4 336.96,-480.96"/>
        </g>
        <!-- 5_3&#45;&#45;6_3 -->
        <!-- 5_3&#45;&#45;5_4 -->
        <!-- 3_7&#45;&#45;4_7 -->
        <!-- 3_3&#45;&#45;4_3 -->
        <!-- 3_4 -->
        <g id="node64" class="node">
            <title>3_4</title>
            <polygon fill="Moccasin" stroke="Moccasin" points="408.96,-336.96 338.4,-336.96 338.4,-266.4 408.96,-266.4 408.96,-336.96"/>
        </g>
        <!-- 3_3&#45;&#45;3_4 -->
        <!-- 6_6 -->
        <g id="node42" class="node">
            <title>6_6</title>
            <polygon fill="SandyBrown" stroke="SandyBrown" points="552.96,-552.96 482.4,-552.96 482.4,-482.4 552.96,-482.4 552.96,-552.96"/>
        </g>
        <!-- 6_5&#45;&#45;6_6 -->
        <!-- 6_5&#45;&#45;7_5 -->
        <!-- 0_2 -->
        <g id="node46" class="node">
            <title>0_2</title>
            <polygon fill="SandyBrown" stroke="SandyBrown" points="264.96,-120.96 194.4,-120.96 194.4,-50.4 264.96,-50.4 264.96,-120.96"/>
        </g>
        <!-- 0_1&#45;&#45;0_2 -->
        <!-- 0_1&#45;&#45;1_1 -->
        <!-- 6_0 -->
        <g id="node44" class="node">
            <title>6_0</title>
            <polygon fill="SandyBrown" stroke="SandyBrown" points="120.96,-552.96 50.4,-552.96 50.4,-482.4 120.96,-482.4 120.96,-552.96"/>
        </g>
        <!-- 5_0&#45;&#45;6_0 -->
        <!-- 5_1 -->
        <g id="node53" class="node">
            <title>5_1</title>
            <polygon fill="SandyBrown" stroke="SandyBrown" points="192.96,-480.96 122.4,-480.96 122.4,-410.4 192.96,-410.4 192.96,-480.96"/>
        </g>
        <!-- 5_0&#45;&#45;5_1 -->
        <!-- 4_4 -->
        <g id="node38" class="node">
            <title>4_4</title>
            <polygon fill="SandyBrown" stroke="SandyBrown" points="408.96,-408.96 338.4,-408.96 338.4,-338.4 408.96,-338.4 408.96,-408.96"/>
        </g>
        <!-- 4_4&#45;&#45;4_5 -->
        <!-- 4_4&#45;&#45;5_4 -->
        <!-- 6_7&#45;&#45;7_7 -->
        <!-- 4_3&#45;&#45;5_3 -->
        <!-- 4_3&#45;&#45;4_4 -->
        <!-- 5_2&#45;&#45;6_2 -->
        <!-- 5_2&#45;&#45;5_3 -->
        <!-- 6_6&#45;&#45;6_7 -->
        <!-- 7_6 -->
        <g id="node56" class="node">
            <title>7_6</title>
            <polygon fill="Moccasin" stroke="Moccasin" points="552.96,-624.96 482.4,-624.96 482.4,-554.4 552.96,-554.4 552.96,-624.96"/>
        </g>
        <!-- 6_6&#45;&#45;7_6 -->
        <!-- 4_1&#45;&#45;4_2 -->
        <!-- 4_1&#45;&#45;5_1 -->
        <!-- 6_0&#45;&#45;7_0 -->
        <!-- 6_1 -->
        <g id="node58" class="node">
            <title>6_1</title>
            <polygon fill="Moccasin" stroke="Moccasin" points="192.96,-552.96 122.4,-552.96 122.4,-482.4 192.96,-482.4 192.96,-552.96"/>
        </g>
        <!-- 6_0&#45;&#45;6_1 -->
        <!-- 1_6&#45;&#45;1_7 -->
        <!-- 2_6 -->
        <g id="node54" class="node">
            <title>2_6</title>
            <polygon fill="SandyBrown" stroke="SandyBrown" points="552.96,-264.96 482.4,-264.96 482.4,-194.4 552.96,-194.4 552.96,-264.96"/>
        </g>
        <!-- 1_6&#45;&#45;2_6 -->
        <!-- 0_2&#45;&#45;1_2 -->
        <!-- 0_3 -->
        <g id="node57" class="node">
            <title>0_3</title>
            <polygon fill="Moccasin" stroke="Moccasin" points="336.96,-120.96 266.4,-120.96 266.4,-50.4 336.96,-50.4 336.96,-120.96"/>
        </g>
        <!-- 0_2&#45;&#45;0_3 -->
        <!-- 2_4&#45;&#45;2_5 -->
        <!-- 2_4&#45;&#45;3_4 -->
        <!-- 0_4 -->
        <g id="node48" class="node">
            <title>0_4</title>
            <polygon fill="SandyBrown" stroke="SandyBrown" points="408.96,-120.96 338.4,-120.96 338.4,-50.4 408.96,-50.4 408.96,-120.96"/>
        </g>
        <!-- 0_4&#45;&#45;1_4 -->
        <!-- 0_4&#45;&#45;0_5 -->
        <!-- 0_7 -->
        <g id="node49" class="node">
            <title>0_7</title>
            <polygon fill="Moccasin" stroke="Moccasin" points="624.96,-120.96 554.4,-120.96 554.4,-50.4 624.96,-50.4 624.96,-120.96"/>
        </g>
        <!-- 0_7&#45;&#45;1_7 -->
        <!-- 1_1&#45;&#45;1_2 -->
        <!-- 1_1&#45;&#45;2_1 -->
        <!-- 4_6&#45;&#45;4_7 -->
        <!-- 4_6&#45;&#45;5_6 -->
        <!-- 2_5&#45;&#45;3_5 -->
        <!-- 2_5&#45;&#45;2_6 -->
        <!-- 5_1&#45;&#45;5_2 -->
        <!-- 5_1&#45;&#45;6_1 -->
        <!-- 2_6&#45;&#45;2_7 -->
        <!-- 2_6&#45;&#45;3_6 -->
        <!-- 3_6&#45;&#45;3_7 -->
        <!-- 3_6&#45;&#45;4_6 -->
        <!-- 7_6&#45;&#45;7_7 -->
        <!-- 0_3&#45;&#45;1_3 -->
        <!-- 0_3&#45;&#45;0_4 -->
        <!-- 6_1&#45;&#45;7_1 -->
        <!-- 6_1&#45;&#45;6_2 -->
        <!-- 5_6&#45;&#45;5_7 -->
        <!-- 5_6&#45;&#45;6_6 -->
        <!-- 7_5&#45;&#45;7_6 -->
        <!-- 0_6&#45;&#45;1_6 -->
        <!-- 0_6&#45;&#45;0_7 -->
        <!-- 2_2&#45;&#45;3_2 -->
        <!-- 2_2&#45;&#45;2_3 -->
        <!-- 2_3&#45;&#45;3_3 -->
        <!-- 2_3&#45;&#45;2_4 -->
        <!-- 3_4&#45;&#45;3_5 -->
        <!-- 3_4&#45;&#45;4_4 -->
        <!-- 5 -->
        <g id="node65" class="node">
            <title>5</title>
            <polygon fill="none" stroke="none" points="70.56,-408.96 0,-408.96 0,-338.4 70.56,-338.4 70.56,-408.96"/>
            <text text-anchor="middle" x="35.28" y="-365.93" font-family="Times,serif" font-size="20.00" fill="Ivory">5</text>
        </g>
        <!-- 6 -->
        <g id="node79" class="node">
            <title>6</title>
            <polygon fill="none" stroke="none" points="70.56,-480.96 0,-480.96 0,-410.4 70.56,-410.4 70.56,-480.96"/>
            <text text-anchor="middle" x="35.28" y="-437.93" font-family="Times,serif" font-size="20.00" fill="Ivory">6</text>
        </g>
        <!-- 5&#45;&#45;6 -->
        <!-- f -->
        <g id="node66" class="node">
            <title>f</title>
            <polygon fill="none" stroke="none" points="480.96,-70.56 410.4,-70.56 410.4,0 480.96,0 480.96,-70.56"/>
            <text text-anchor="middle" x="445.68" y="-27.53" font-family="Times,serif" font-size="20.00" fill="Ivory">f</text>
        </g>
        <!-- g -->
        <g id="node80" class="node">
            <title>g</title>
            <polygon fill="none" stroke="none" points="552.96,-70.56 482.4,-70.56 482.4,0 552.96,0 552.96,-70.56"/>
            <text text-anchor="middle" x="517.68" y="-27.53" font-family="Times,serif" font-size="20.00" fill="Ivory">g</text>
        </g>
        <!-- f&#45;&#45;g -->
        <!-- 7 -->
        <g id="node67" class="node">
            <title>7</title>
            <polygon fill="none" stroke="none" points="70.56,-552.96 0,-552.96 0,-482.4 70.56,-482.4 70.56,-552.96"/>
            <text text-anchor="middle" x="35.28" y="-509.93" font-family="Times,serif" font-size="20.00" fill="Ivory">7</text>
        </g>
        <!-- 8 -->
        <g id="node72" class="node">
            <title>8</title>
            <polygon fill="none" stroke="none" points="70.56,-624.96 0,-624.96 0,-554.4 70.56,-554.4 70.56,-624.96"/>
            <text text-anchor="middle" x="35.28" y="-581.93" font-family="Times,serif" font-size="20.00" fill="Ivory">8</text>
        </g>
        <!-- 7&#45;&#45;8 -->
        <!-- 4 -->
        <g id="node68" class="node">
            <title>4</title>
            <polygon fill="none" stroke="none" points="70.56,-336.96 0,-336.96 0,-266.4 70.56,-266.4 70.56,-336.96"/>
            <text text-anchor="middle" x="35.28" y="-293.93" font-family="Times,serif" font-size="20.00" fill="Ivory">4</text>
        </g>
        <!-- 4&#45;&#45;5 -->
        <!-- 3 -->
        <g id="node69" class="node">
            <title>3</title>
            <polygon fill="none" stroke="none" points="70.56,-264.96 0,-264.96 0,-194.4 70.56,-194.4 70.56,-264.96"/>
            <text text-anchor="middle" x="35.28" y="-221.93" font-family="Times,serif" font-size="20.00" fill="Ivory">3</text>
        </g>
        <!-- 3&#45;&#45;4 -->
        <!-- c -->
        <g id="node70" class="node">
            <title>c</title>
            <polygon fill="none" stroke="none" points="264.96,-70.56 194.4,-70.56 194.4,0 264.96,0 264.96,-70.56"/>
            <text text-anchor="middle" x="229.68" y="-27.53" font-family="Times,serif" font-size="20.00" fill="Ivory">c</text>
        </g>
        <!-- d -->
        <g id="node78" class="node">
            <title>d</title>
            <polygon fill="none" stroke="none" points="336.96,-70.56 266.4,-70.56 266.4,0 336.96,0 336.96,-70.56"/>
            <text text-anchor="middle" x="301.68" y="-27.53" font-family="Times,serif" font-size="20.00" fill="Ivory">d</text>
        </g>
        <!-- c&#45;&#45;d -->
        <!-- h -->
        <g id="node71" class="node">
            <title>h</title>
            <polygon fill="none" stroke="none" points="624.96,-70.56 554.4,-70.56 554.4,0 624.96,0 624.96,-70.56"/>
            <text text-anchor="middle" x="589.68" y="-27.53" font-family="Times,serif" font-size="20.00" fill="Ivory">h</text>
        </g>
        <!-- e -->
        <g id="node73" class="node">
            <title>e</title>
            <polygon fill="none" stroke="none" points="408.96,-70.56 338.4,-70.56 338.4,0 408.96,0 408.96,-70.56"/>
            <text text-anchor="middle" x="373.68" y="-27.53" font-family="Times,serif" font-size="20.00" fill="Ivory">e</text>
        </g>
        <!-- e&#45;&#45;f -->
        <!-- b -->
        <g id="node74" class="node">
            <title>b</title>
            <polygon fill="none" stroke="none" points="192.96,-70.56 122.4,-70.56 122.4,0 192.96,0 192.96,-70.56"/>
            <text text-anchor="middle" x="157.68" y="-27.53" font-family="Times,serif" font-size="20.00" fill="Ivory">b</text>
        </g>
        <!-- b&#45;&#45;c -->
        <!-- 1 -->
        <g id="node75" class="node">
            <title>1</title>
            <polygon fill="none" stroke="none" points="70.56,-120.96 0,-120.96 0,-50.4 70.56,-50.4 70.56,-120.96"/>
            <text text-anchor="middle" x="35.28" y="-77.93" font-family="Times,serif" font-size="20.00" fill="Ivory">1</text>
        </g>
        <!-- 2 -->
        <g id="node77" class="node">
            <title>2</title>
            <polygon fill="none" stroke="none" points="70.56,-192.96 0,-192.96 0,-122.4 70.56,-122.4 70.56,-192.96"/>
            <text text-anchor="middle" x="35.28" y="-149.93" font-family="Times,serif" font-size="20.00" fill="Ivory">2</text>
        </g>
        <!-- 1&#45;&#45;2 -->
        <!-- a -->
        <g id="node76" class="node">
            <title>a</title>
            <polygon fill="none" stroke="none" points="120.96,-70.56 50.4,-70.56 50.4,0 120.96,0 120.96,-70.56"/>
            <text text-anchor="middle" x="85.68" y="-27.53" font-family="Times,serif" font-size="20.00" fill="Ivory">a</text>
        </g>
        <!-- a&#45;&#45;b -->
        <!-- 2&#45;&#45;3 -->
        <!-- d&#45;&#45;e -->
        <!-- 6&#45;&#45;7 -->
        <!-- g&#45;&#45;h -->
    </g>
</svg>
