<?xml version="1.0" encoding="UTF-8" standalone="no"?>
<!DOCTYPE svg PUBLIC "-//W3C//DTD SVG 1.1//EN"
        "http://www.w3.org/Graphics/SVG/1.1/DTD/svg11.dtd">
<!-- Generated by graphviz version 11.0.0 (20240428.1522)
 -->
<!-- Pages: 1 -->
<svg width="288pt" height="288pt"
     viewBox="0.00 0.00 288.00 288.00" xmlns="http://www.w3.org/2000/svg" xmlns:xlink="http://www.w3.org/1999/xlink">
    <g id="graph0" class="graph" transform="scale(0.690714 0.690714) rotate(0) translate(4 412.96)">
        <polygon fill="none" stroke="none" points="-4,4 -4,-412.96 412.96,-412.96 412.96,4 -4,4"/>
        <!-- cb&#45;square&#45;1_2 -->
        <g id="node1" class="node">
            <title>cb&#45;square&#45;1_2</title>
            <polygon fill="#ebecd0" stroke="#ebecd0" points="264.96,-192.96 194.4,-192.96 194.4,-122.4 264.96,-122.4 264.96,-192.96"/>
        </g>
        <!-- cb&#45;square&#45;1_3 -->
        <g id="node12" class="node">
            <title>cb&#45;square&#45;1_3</title>
            <polygon fill="#779556" stroke="#779556" points="336.96,-192.96 266.4,-192.96 266.4,-122.4 336.96,-122.4 336.96,-192.96"/>
        </g>
        <!-- cb&#45;square&#45;1_2&#45;&#45;cb&#45;square&#45;1_3 -->
        <!-- cb&#45;square&#45;2_2 -->
        <g id="node25" class="node">
            <title>cb&#45;square&#45;2_2</title>
            <polygon fill="#779556" stroke="#779556" points="264.96,-264.96 194.4,-264.96 194.4,-194.4 264.96,-194.4 264.96,-264.96"/>
        </g>
        <!-- cb&#45;square&#45;1_2&#45;&#45;cb&#45;square&#45;2_2 -->
        <!-- cb&#45;square&#45;4_0 -->
        <g id="node2" class="node">
            <title>cb&#45;square&#45;4_0</title>
            <polygon fill="#779556" stroke="#779556" points="120.96,-408.96 50.4,-408.96 50.4,-338.4 120.96,-338.4 120.96,-408.96"/>
        </g>
        <!-- cb&#45;square&#45;4_1 -->
        <g id="node9" class="node">
            <title>cb&#45;square&#45;4_1</title>
            <polygon fill="#ebecd0" stroke="#ebecd0" points="192.96,-408.96 122.4,-408.96 122.4,-338.4 192.96,-338.4 192.96,-408.96"/>
        </g>
        <!-- cb&#45;square&#45;4_0&#45;&#45;cb&#45;square&#45;4_1 -->
        <!-- cb&#45;square&#45;0_0 -->
        <g id="node3" class="node">
            <title>cb&#45;square&#45;0_0</title>
            <polygon fill="#779556" stroke="#779556" points="120.96,-120.96 50.4,-120.96 50.4,-50.4 120.96,-50.4 120.96,-120.96"/>
        </g>
        <!-- cb&#45;square&#45;0_1 -->
        <g id="node16" class="node">
            <title>cb&#45;square&#45;0_1</title>
            <polygon fill="#ebecd0" stroke="#ebecd0" points="192.96,-120.96 122.4,-120.96 122.4,-50.4 192.96,-50.4 192.96,-120.96"/>
        </g>
        <!-- cb&#45;square&#45;0_0&#45;&#45;cb&#45;square&#45;0_1 -->
        <!-- cb&#45;square&#45;1_0 -->
        <g id="node17" class="node">
            <title>cb&#45;square&#45;1_0</title>
            <polygon fill="#ebecd0" stroke="#ebecd0" points="120.96,-192.96 50.4,-192.96 50.4,-122.4 120.96,-122.4 120.96,-192.96"/>
        </g>
        <!-- cb&#45;square&#45;0_0&#45;&#45;cb&#45;square&#45;1_0 -->
        <!-- cb&#45;square&#45;3_2 -->
        <g id="node4" class="node">
            <title>cb&#45;square&#45;3_2</title>
            <polygon fill="#ebecd0" stroke="#ebecd0" points="264.96,-336.96 194.4,-336.96 194.4,-266.4 264.96,-266.4 264.96,-336.96"/>
        </g>
        <!-- cb&#45;square&#45;4_2 -->
        <g id="node6" class="node">
            <title>cb&#45;square&#45;4_2</title>
            <polygon fill="#779556" stroke="#779556" points="264.96,-408.96 194.4,-408.96 194.4,-338.4 264.96,-338.4 264.96,-408.96"/>
        </g>
        <!-- cb&#45;square&#45;3_2&#45;&#45;cb&#45;square&#45;4_2 -->
        <!-- cb&#45;square&#45;3_3 -->
        <g id="node13" class="node">
            <title>cb&#45;square&#45;3_3</title>
            <polygon fill="#779556" stroke="#779556" points="336.96,-336.96 266.4,-336.96 266.4,-266.4 336.96,-266.4 336.96,-336.96"/>
        </g>
        <!-- cb&#45;square&#45;3_2&#45;&#45;cb&#45;square&#45;3_3 -->
        <!-- cb&#45;square&#45;3_0 -->
        <g id="node5" class="node">
            <title>cb&#45;square&#45;3_0</title>
            <polygon fill="#ebecd0" stroke="#ebecd0" points="120.96,-336.96 50.4,-336.96 50.4,-266.4 120.96,-266.4 120.96,-336.96"/>
        </g>
        <!-- cb&#45;square&#45;3_0&#45;&#45;cb&#45;square&#45;4_0 -->
        <!-- cb&#45;square&#45;3_1 -->
        <g id="node18" class="node">
            <title>cb&#45;square&#45;3_1</title>
            <polygon fill="#779556" stroke="#779556" points="192.96,-336.96 122.4,-336.96 122.4,-266.4 192.96,-266.4 192.96,-336.96"/>
        </g>
        <!-- cb&#45;square&#45;3_0&#45;&#45;cb&#45;square&#45;3_1 -->
        <!-- cb&#45;square&#45;4_3 -->
        <g id="node22" class="node">
            <title>cb&#45;square&#45;4_3</title>
            <polygon fill="#ebecd0" stroke="#ebecd0" points="336.96,-408.96 266.4,-408.96 266.4,-338.4 336.96,-338.4 336.96,-408.96"/>
        </g>
        <!-- cb&#45;square&#45;4_2&#45;&#45;cb&#45;square&#45;4_3 -->
        <!-- cb&#45;square&#45;2_3 -->
        <g id="node7" class="node">
            <title>cb&#45;square&#45;2_3</title>
            <polygon fill="#ebecd0" stroke="#ebecd0" points="336.96,-264.96 266.4,-264.96 266.4,-194.4 336.96,-194.4 336.96,-264.96"/>
        </g>
        <!-- cb&#45;square&#45;2_3&#45;&#45;cb&#45;square&#45;3_3 -->
        <!-- cb&#45;square&#45;2_4 -->
        <g id="node19" class="node">
            <title>cb&#45;square&#45;2_4</title>
            <polygon fill="#779556" stroke="#779556" points="408.96,-264.96 338.4,-264.96 338.4,-194.4 408.96,-194.4 408.96,-264.96"/>
        </g>
        <!-- cb&#45;square&#45;2_3&#45;&#45;cb&#45;square&#45;2_4 -->
        <!-- cb&#45;square&#45;1_1 -->
        <g id="node8" class="node">
            <title>cb&#45;square&#45;1_1</title>
            <polygon fill="#779556" stroke="#779556" points="192.96,-192.96 122.4,-192.96 122.4,-122.4 192.96,-122.4 192.96,-192.96"/>
        </g>
        <!-- cb&#45;square&#45;1_1&#45;&#45;cb&#45;square&#45;1_2 -->
        <!-- cb&#45;square&#45;2_1 -->
        <g id="node20" class="node">
            <title>cb&#45;square&#45;2_1</title>
            <polygon fill="#ebecd0" stroke="#ebecd0" points="192.96,-264.96 122.4,-264.96 122.4,-194.4 192.96,-194.4 192.96,-264.96"/>
        </g>
        <!-- cb&#45;square&#45;1_1&#45;&#45;cb&#45;square&#45;2_1 -->
        <!-- cb&#45;square&#45;4_1&#45;&#45;cb&#45;square&#45;4_2 -->
        <!-- cb&#45;square&#45;0_2 -->
        <g id="node10" class="node">
            <title>cb&#45;square&#45;0_2</title>
            <polygon fill="#779556" stroke="#779556" points="264.96,-120.96 194.4,-120.96 194.4,-50.4 264.96,-50.4 264.96,-120.96"/>
        </g>
        <!-- cb&#45;square&#45;0_2&#45;&#45;cb&#45;square&#45;1_2 -->
        <!-- cb&#45;square&#45;0_3 -->
        <g id="node11" class="node">
            <title>cb&#45;square&#45;0_3</title>
            <polygon fill="#ebecd0" stroke="#ebecd0" points="336.96,-120.96 266.4,-120.96 266.4,-50.4 336.96,-50.4 336.96,-120.96"/>
        </g>
        <!-- cb&#45;square&#45;0_2&#45;&#45;cb&#45;square&#45;0_3 -->
        <!-- cb&#45;square&#45;0_3&#45;&#45;cb&#45;square&#45;1_3 -->
        <!-- cb&#45;square&#45;0_4 -->
        <g id="node14" class="node">
            <title>cb&#45;square&#45;0_4</title>
            <polygon fill="#779556" stroke="#779556" points="408.96,-120.96 338.4,-120.96 338.4,-50.4 408.96,-50.4 408.96,-120.96"/>
        </g>
        <!-- cb&#45;square&#45;0_3&#45;&#45;cb&#45;square&#45;0_4 -->
        <!-- cb&#45;square&#45;1_3&#45;&#45;cb&#45;square&#45;2_3 -->
        <!-- cb&#45;square&#45;1_4 -->
        <g id="node24" class="node">
            <title>cb&#45;square&#45;1_4</title>
            <polygon fill="#ebecd0" stroke="#ebecd0" points="408.96,-192.96 338.4,-192.96 338.4,-122.4 408.96,-122.4 408.96,-192.96"/>
        </g>
        <!-- cb&#45;square&#45;1_3&#45;&#45;cb&#45;square&#45;1_4 -->
        <!-- cb&#45;square&#45;3_3&#45;&#45;cb&#45;square&#45;4_3 -->
        <!-- cb&#45;square&#45;3_4 -->
        <g id="node23" class="node">
            <title>cb&#45;square&#45;3_4</title>
            <polygon fill="#ebecd0" stroke="#ebecd0" points="408.96,-336.96 338.4,-336.96 338.4,-266.4 408.96,-266.4 408.96,-336.96"/>
        </g>
        <!-- cb&#45;square&#45;3_3&#45;&#45;cb&#45;square&#45;3_4 -->
        <!-- cb&#45;square&#45;0_4&#45;&#45;cb&#45;square&#45;1_4 -->
        <!-- cb&#45;square&#45;4_4 -->
        <g id="node15" class="node">
            <title>cb&#45;square&#45;4_4</title>
            <polygon fill="#779556" stroke="#779556" points="408.96,-408.96 338.4,-408.96 338.4,-338.4 408.96,-338.4 408.96,-408.96"/>
        </g>
        <!-- cb&#45;square&#45;0_1&#45;&#45;cb&#45;square&#45;1_1 -->
        <!-- cb&#45;square&#45;0_1&#45;&#45;cb&#45;square&#45;0_2 -->
        <!-- cb&#45;square&#45;1_0&#45;&#45;cb&#45;square&#45;1_1 -->
        <!-- cb&#45;square&#45;2_0 -->
        <g id="node21" class="node">
            <title>cb&#45;square&#45;2_0</title>
            <polygon fill="#779556" stroke="#779556" points="120.96,-264.96 50.4,-264.96 50.4,-194.4 120.96,-194.4 120.96,-264.96"/>
        </g>
        <!-- cb&#45;square&#45;1_0&#45;&#45;cb&#45;square&#45;2_0 -->
        <!-- cb&#45;square&#45;3_1&#45;&#45;cb&#45;square&#45;3_2 -->
        <!-- cb&#45;square&#45;3_1&#45;&#45;cb&#45;square&#45;4_1 -->
        <!-- cb&#45;square&#45;2_4&#45;&#45;cb&#45;square&#45;3_4 -->
        <!-- cb&#45;square&#45;2_1&#45;&#45;cb&#45;square&#45;3_1 -->
        <!-- cb&#45;square&#45;2_1&#45;&#45;cb&#45;square&#45;2_2 -->
        <!-- cb&#45;square&#45;2_0&#45;&#45;cb&#45;square&#45;3_0 -->
        <!-- cb&#45;square&#45;2_0&#45;&#45;cb&#45;square&#45;2_1 -->
        <!-- cb&#45;square&#45;4_3&#45;&#45;cb&#45;square&#45;4_4 -->
        <!-- cb&#45;square&#45;3_4&#45;&#45;cb&#45;square&#45;4_4 -->
        <!-- cb&#45;square&#45;1_4&#45;&#45;cb&#45;square&#45;2_4 -->
        <!-- cb&#45;square&#45;2_2&#45;&#45;cb&#45;square&#45;3_2 -->
        <!-- cb&#45;square&#45;2_2&#45;&#45;cb&#45;square&#45;2_3 -->
        <!-- cb&#45;tick&#45;3 -->
        <g id="node26" class="node">
            <title>cb&#45;tick&#45;3</title>
            <polygon fill="none" stroke="none" points="70.56,-264.96 0,-264.96 0,-194.4 70.56,-194.4 70.56,-264.96"/>
            <text text-anchor="middle" x="35.28" y="-221.93" font-family="Times,serif" font-size="20.00" fill="Ivory">3</text>
        </g>
        <!-- cb&#45;tick&#45;4 -->
        <g id="node34" class="node">
            <title>cb&#45;tick&#45;4</title>
            <polygon fill="none" stroke="none" points="70.56,-336.96 0,-336.96 0,-266.4 70.56,-266.4 70.56,-336.96"/>
            <text text-anchor="middle" x="35.28" y="-293.93" font-family="Times,serif" font-size="20.00" fill="Ivory">4</text>
        </g>
        <!-- cb&#45;tick&#45;3&#45;&#45;cb&#45;tick&#45;4 -->
        <!-- cb&#45;tick&#45;d -->
        <g id="node27" class="node">
            <title>cb&#45;tick&#45;d</title>
            <polygon fill="none" stroke="none" points="336.96,-70.56 266.4,-70.56 266.4,0 336.96,0 336.96,-70.56"/>
            <text text-anchor="middle" x="301.68" y="-27.53" font-family="Times,serif" font-size="20.00" fill="Ivory">d</text>
        </g>
        <!-- cb&#45;tick&#45;e -->
        <g id="node31" class="node">
            <title>cb&#45;tick&#45;e</title>
            <polygon fill="none" stroke="none" points="408.96,-70.56 338.4,-70.56 338.4,0 408.96,0 408.96,-70.56"/>
            <text text-anchor="middle" x="373.68" y="-27.53" font-family="Times,serif" font-size="20.00" fill="Ivory">e</text>
        </g>
        <!-- cb&#45;tick&#45;d&#45;&#45;cb&#45;tick&#45;e -->
        <!-- cb&#45;tick&#45;c -->
        <g id="node28" class="node">
            <title>cb&#45;tick&#45;c</title>
            <polygon fill="none" stroke="none" points="264.96,-70.56 194.4,-70.56 194.4,0 264.96,0 264.96,-70.56"/>
            <text text-anchor="middle" x="229.68" y="-27.53" font-family="Times,serif" font-size="20.00" fill="Ivory">c</text>
        </g>
        <!-- cb&#45;tick&#45;c&#45;&#45;cb&#45;tick&#45;d -->
        <!-- cb&#45;tick&#45;b -->
        <g id="node29" class="node">
            <title>cb&#45;tick&#45;b</title>
            <polygon fill="none" stroke="none" points="192.96,-70.56 122.4,-70.56 122.4,0 192.96,0 192.96,-70.56"/>
            <text text-anchor="middle" x="157.68" y="-27.53" font-family="Times,serif" font-size="20.00" fill="Ivory">b</text>
        </g>
        <!-- cb&#45;tick&#45;b&#45;&#45;cb&#45;tick&#45;c -->
        <!-- cb&#45;tick&#45;1 -->
        <g id="node30" class="node">
            <title>cb&#45;tick&#45;1</title>
            <polygon fill="none" stroke="none" points="70.56,-120.96 0,-120.96 0,-50.4 70.56,-50.4 70.56,-120.96"/>
            <text text-anchor="middle" x="35.28" y="-77.93" font-family="Times,serif" font-size="20.00" fill="Ivory">1</text>
        </g>
        <!-- cb&#45;tick&#45;2 -->
        <g id="node35" class="node">
            <title>cb&#45;tick&#45;2</title>
            <polygon fill="none" stroke="none" points="70.56,-192.96 0,-192.96 0,-122.4 70.56,-122.4 70.56,-192.96"/>
            <text text-anchor="middle" x="35.28" y="-149.93" font-family="Times,serif" font-size="20.00" fill="Ivory">2</text>
        </g>
        <!-- cb&#45;tick&#45;1&#45;&#45;cb&#45;tick&#45;2 -->
        <!-- cb&#45;tick&#45;a -->
        <g id="node32" class="node">
            <title>cb&#45;tick&#45;a</title>
            <polygon fill="none" stroke="none" points="120.96,-70.56 50.4,-70.56 50.4,0 120.96,0 120.96,-70.56"/>
            <text text-anchor="middle" x="85.68" y="-27.53" font-family="Times,serif" font-size="20.00" fill="Ivory">a</text>
        </g>
        <!-- cb&#45;tick&#45;a&#45;&#45;cb&#45;tick&#45;b -->
        <!-- cb&#45;tick&#45;5 -->
        <g id="node33" class="node">
            <title>cb&#45;tick&#45;5</title>
            <polygon fill="none" stroke="none" points="70.56,-408.96 0,-408.96 0,-338.4 70.56,-338.4 70.56,-408.96"/>
            <text text-anchor="middle" x="35.28" y="-365.93" font-family="Times,serif" font-size="20.00" fill="Ivory">5</text>
        </g>
        <!-- cb&#45;tick&#45;4&#45;&#45;cb&#45;tick&#45;5 -->
        <!-- cb&#45;tick&#45;2&#45;&#45;cb&#45;tick&#45;3 -->
        <!-- p0 -->
        <g id="node36" class="node">
            <title>p0</title>
            <polygon fill="none" stroke="none" points="408.96,-336.96 338.4,-336.96 338.4,-266.4 408.96,-266.4 408.96,-336.96"/>
            <text text-anchor="middle" x="373.68" y="-276.43" font-family="Times,serif" font-size="70.00">♟</text>
        </g>
        <!-- p1 -->
        <g id="node37" class="node">
            <title>p1</title>
            <polygon fill="none" stroke="none" points="120.96,-336.96 50.4,-336.96 50.4,-266.4 120.96,-266.4 120.96,-336.96"/>
            <text text-anchor="middle" x="85.68" y="-276.43" font-family="Times,serif" font-size="70.00">♟</text>
        </g>
        <!-- p2 -->
        <g id="node38" class="node">
            <title>p2</title>
            <polygon fill="none" stroke="none" points="192.96,-336.96 122.4,-336.96 122.4,-266.4 192.96,-266.4 192.96,-336.96"/>
            <text text-anchor="middle" x="157.68" y="-276.43" font-family="Times,serif" font-size="70.00">♟</text>
        </g>
        <!-- p3 -->
        <g id="node39" class="node">
            <title>p3</title>
            <polygon fill="none" stroke="none" points="192.96,-120.96 122.4,-120.96 122.4,-50.4 192.96,-50.4 192.96,-120.96"/>
            <text text-anchor="middle" x="157.68" y="-60.43" font-family="Times,serif" font-size="70.00" fill="White">♞</text>
        </g>
        <!-- p4 -->
        <g id="node40" class="node">
            <title>p4</title>
            <polygon fill="none" stroke="none" points="192.96,-120.96 122.4,-120.96 122.4,-50.4 192.96,-50.4 192.96,-120.96"/>
            <text text-anchor="middle" x="157.68" y="-60.43" font-family="Times,serif" font-size="70.00" fill="LightGray">♘</text>
        </g>
        <!-- p5 -->
        <g id="node41" class="node">
            <title>p5</title>
            <polygon fill="none" stroke="none" points="120.96,-192.96 50.4,-192.96 50.4,-122.4 120.96,-122.4 120.96,-192.96"/>
            <text text-anchor="middle" x="85.68" y="-132.43" font-family="Times,serif" font-size="70.00" fill="White">♟</text>
        </g>
        <!-- p6 -->
        <g id="node42" class="node">
            <title>p6</title>
            <polygon fill="none" stroke="none" points="120.96,-192.96 50.4,-192.96 50.4,-122.4 120.96,-122.4 120.96,-192.96"/>
            <text text-anchor="middle" x="85.68" y="-132.43" font-family="Times,serif" font-size="70.00" fill="LightGray">♙</text>
        </g>
        <!-- p7 -->
        <g id="node43" class="node">
            <title>p7</title>
            <polygon fill="none" stroke="none" points="336.96,-336.96 266.4,-336.96 266.4,-266.4 336.96,-266.4 336.96,-336.96"/>
            <text text-anchor="middle" x="301.68" y="-276.43" font-family="Times,serif" font-size="70.00">♟</text>
        </g>
        <!-- p8 -->
        <g id="node44" class="node">
            <title>p8</title>
            <polygon fill="none" stroke="none" points="336.96,-408.96 266.4,-408.96 266.4,-338.4 336.96,-338.4 336.96,-408.96"/>
            <text text-anchor="middle" x="301.68" y="-348.43" font-family="Times,serif" font-size="70.00">♛</text>
        </g>
        <!-- p9 -->
        <g id="node45" class="node">
            <title>p9</title>
            <polygon fill="none" stroke="none" points="408.96,-120.96 338.4,-120.96 338.4,-50.4 408.96,-50.4 408.96,-120.96"/>
            <text text-anchor="middle" x="373.68" y="-60.43" font-family="Times,serif" font-size="70.00" fill="White">♚</text>
        </g>
        <!-- p10 -->
        <g id="node46" class="node">
            <title>p10</title>
            <polygon fill="none" stroke="none" points="408.96,-120.96 338.4,-120.96 338.4,-50.4 408.96,-50.4 408.96,-120.96"/>
            <text text-anchor="middle" x="373.68" y="-60.43" font-family="Times,serif" font-size="70.00" fill="LightGray">♔</text>
        </g>
        <!-- p11 -->
        <g id="node47" class="node">
            <title>p11</title>
            <polygon fill="none" stroke="none" points="120.96,-408.96 50.4,-408.96 50.4,-338.4 120.96,-338.4 120.96,-408.96"/>
            <text text-anchor="middle" x="85.68" y="-348.43" font-family="Times,serif" font-size="70.00">♜</text>
        </g>
        <!-- p12 -->
        <g id="node48" class="node">
            <title>p12</title>
            <polygon fill="none" stroke="none" points="264.96,-120.96 194.4,-120.96 194.4,-50.4 264.96,-50.4 264.96,-120.96"/>
            <text text-anchor="middle" x="229.68" y="-60.43" font-family="Times,serif" font-size="70.00" fill="White">♝</text>
        </g>
        <!-- p13 -->
        <g id="node49" class="node">
            <title>p13</title>
            <polygon fill="none" stroke="none" points="264.96,-120.96 194.4,-120.96 194.4,-50.4 264.96,-50.4 264.96,-120.96"/>
            <text text-anchor="middle" x="229.68" y="-60.43" font-family="Times,serif" font-size="70.00" fill="LightGray">♗</text>
        </g>
        <!-- p14 -->
        <g id="node50" class="node">
            <title>p14</title>
            <polygon fill="none" stroke="none" points="336.96,-192.96 266.4,-192.96 266.4,-122.4 336.96,-122.4 336.96,-192.96"/>
            <text text-anchor="middle" x="301.68" y="-132.43" font-family="Times,serif" font-size="70.00" fill="White">♟</text>
        </g>
        <!-- p15 -->
        <g id="node51" class="node">
            <title>p15</title>
            <polygon fill="none" stroke="none" points="336.96,-192.96 266.4,-192.96 266.4,-122.4 336.96,-122.4 336.96,-192.96"/>
            <text text-anchor="middle" x="301.68" y="-132.43" font-family="Times,serif" font-size="70.00" fill="LightGray">♙</text>
        </g>
        <!-- p16 -->
        <g id="node52" class="node">
            <title>p16</title>
            <polygon fill="none" stroke="none" points="120.96,-120.96 50.4,-120.96 50.4,-50.4 120.96,-50.4 120.96,-120.96"/>
            <text text-anchor="middle" x="85.68" y="-60.43" font-family="Times,serif" font-size="70.00" fill="White">♜</text>
        </g>
        <!-- p17 -->
        <g id="node53" class="node">
            <title>p17</title>
            <polygon fill="none" stroke="none" points="120.96,-120.96 50.4,-120.96 50.4,-50.4 120.96,-50.4 120.96,-120.96"/>
            <text text-anchor="middle" x="85.68" y="-60.43" font-family="Times,serif" font-size="70.00" fill="LightGray">♖</text>
        </g>
        <!-- p18 -->
        <g id="node54" class="node">
            <title>p18</title>
            <polygon fill="none" stroke="none" points="408.96,-192.96 338.4,-192.96 338.4,-122.4 408.96,-122.4 408.96,-192.96"/>
            <text text-anchor="middle" x="373.68" y="-132.43" font-family="Times,serif" font-size="70.00" fill="White">♟</text>
        </g>
        <!-- p19 -->
        <g id="node55" class="node">
            <title>p19</title>
            <polygon fill="none" stroke="none" points="408.96,-192.96 338.4,-192.96 338.4,-122.4 408.96,-122.4 408.96,-192.96"/>
            <text text-anchor="middle" x="373.68" y="-132.43" font-family="Times,serif" font-size="70.00" fill="LightGray">♙</text>
        </g>
        <!-- p20 -->
        <g id="node56" class="node">
            <title>p20</title>
            <polygon fill="none" stroke="none" points="264.96,-336.96 194.4,-336.96 194.4,-266.4 264.96,-266.4 264.96,-336.96"/>
            <text text-anchor="middle" x="229.68" y="-276.43" font-family="Times,serif" font-size="70.00">♟</text>
        </g>
        <!-- p21 -->
        <g id="node57" class="node">
            <title>p21</title>
            <polygon fill="none" stroke="none" points="264.96,-192.96 194.4,-192.96 194.4,-122.4 264.96,-122.4 264.96,-192.96"/>
            <text text-anchor="middle" x="229.68" y="-132.43" font-family="Times,serif" font-size="70.00" fill="White">♟</text>
        </g>
        <!-- p22 -->
        <g id="node58" class="node">
            <title>p22</title>
            <polygon fill="none" stroke="none" points="264.96,-192.96 194.4,-192.96 194.4,-122.4 264.96,-122.4 264.96,-192.96"/>
            <text text-anchor="middle" x="229.68" y="-132.43" font-family="Times,serif" font-size="70.00" fill="LightGray">♙</text>
        </g>
        <!-- p23 -->
        <g id="node59" class="node">
            <title>p23</title>
            <polygon fill="none" stroke="none" points="336.96,-120.96 266.4,-120.96 266.4,-50.4 336.96,-50.4 336.96,-120.96"/>
            <text text-anchor="middle" x="301.68" y="-60.43" font-family="Times,serif" font-size="70.00" fill="White">♛</text>
        </g>
        <!-- p24 -->
        <g id="node60" class="node">
            <title>p24</title>
            <polygon fill="none" stroke="none" points="336.96,-120.96 266.4,-120.96 266.4,-50.4 336.96,-50.4 336.96,-120.96"/>
            <text text-anchor="middle" x="301.68" y="-60.43" font-family="Times,serif" font-size="70.00" fill="LightGray">♕</text>
        </g>
        <!-- p25 -->
        <g id="node61" class="node">
            <title>p25</title>
            <polygon fill="none" stroke="none" points="264.96,-408.96 194.4,-408.96 194.4,-338.4 264.96,-338.4 264.96,-408.96"/>
            <text text-anchor="middle" x="229.68" y="-348.43" font-family="Times,serif" font-size="70.00">♝</text>
        </g>
        <!-- p26 -->
        <g id="node62" class="node">
            <title>p26</title>
            <polygon fill="none" stroke="none" points="192.96,-192.96 122.4,-192.96 122.4,-122.4 192.96,-122.4 192.96,-192.96"/>
            <text text-anchor="middle" x="157.68" y="-132.43" font-family="Times,serif" font-size="70.00" fill="White">♟</text>
        </g>
        <!-- p27 -->
        <g id="node63" class="node">
            <title>p27</title>
            <polygon fill="none" stroke="none" points="192.96,-192.96 122.4,-192.96 122.4,-122.4 192.96,-122.4 192.96,-192.96"/>
            <text text-anchor="middle" x="157.68" y="-132.43" font-family="Times,serif" font-size="70.00" fill="LightGray">♙</text>
        </g>
        <!-- p28 -->
        <g id="node64" class="node">
            <title>p28</title>
            <polygon fill="none" stroke="none" points="192.96,-408.96 122.4,-408.96 122.4,-338.4 192.96,-338.4 192.96,-408.96"/>
            <text text-anchor="middle" x="157.68" y="-348.43" font-family="Times,serif" font-size="70.00">♞</text>
        </g>
        <!-- p29 -->
        <g id="node65" class="node">
            <title>p29</title>
            <polygon fill="none" stroke="none" points="408.96,-408.96 338.4,-408.96 338.4,-338.4 408.96,-338.4 408.96,-408.96"/>
            <text text-anchor="middle" x="373.68" y="-348.43" font-family="Times,serif" font-size="70.00">♚</text>
        </g>
    </g>
</svg>
