<?xml version="1.0" encoding="UTF-8" standalone="no"?>
<!DOCTYPE svg PUBLIC "-//W3C//DTD SVG 1.1//EN"
        "http://www.w3.org/Graphics/SVG/1.1/DTD/svg11.dtd">
<!-- Generated by graphviz version 11.0.0 (20240428.1522)
 -->
<!-- Pages: 1 -->
<svg width="288pt" height="246pt"
     viewBox="0.00 0.00 288.00 245.59" xmlns="http://www.w3.org/2000/svg" xmlns:xlink="http://www.w3.org/1999/xlink">
    <g id="graph0" class="graph" transform="scale(0.589005 0.589005) rotate(0) translate(4 412.96)">
        <polygon fill="#1f1f1f" stroke="none" points="-4,4 -4,-412.96 484.96,-412.96 484.96,4 -4,4"/>
        <!-- 0_3 -->
        <g id="node1" class="node">
            <title>0_3</title>
            <polygon fill="LightGray" stroke="LightGray" points="336.96,-120.96 266.4,-120.96 266.4,-50.4 336.96,-50.4 336.96,-120.96"/>
        </g>
        <!-- 0_4 -->
        <g id="node12" class="node">
            <title>0_4</title>
            <polygon fill="DimGray" stroke="DimGray" points="408.96,-120.96 338.4,-120.96 338.4,-50.4 408.96,-50.4 408.96,-120.96"/>
        </g>
        <!-- 0_3&#45;&#45;0_4 -->
        <!-- 1_3 -->
        <g id="node29" class="node">
            <title>1_3</title>
            <polygon fill="DimGray" stroke="DimGray" points="336.96,-192.96 266.4,-192.96 266.4,-122.4 336.96,-122.4 336.96,-192.96"/>
        </g>
        <!-- 0_3&#45;&#45;1_3 -->
        <!-- 2_5 -->
        <g id="node2" class="node">
            <title>2_5</title>
            <polygon fill="LightGray" stroke="LightGray" points="480.96,-264.96 410.4,-264.96 410.4,-194.4 480.96,-194.4 480.96,-264.96"/>
        </g>
        <!-- 3_5 -->
        <g id="node24" class="node">
            <title>3_5</title>
            <polygon fill="DimGray" stroke="DimGray" points="480.96,-336.96 410.4,-336.96 410.4,-266.4 480.96,-266.4 480.96,-336.96"/>
        </g>
        <!-- 2_5&#45;&#45;3_5 -->
        <!-- 2_1 -->
        <g id="node3" class="node">
            <title>2_1</title>
            <polygon fill="LightGray" stroke="LightGray" points="192.96,-264.96 122.4,-264.96 122.4,-194.4 192.96,-194.4 192.96,-264.96"/>
        </g>
        <!-- 2_2 -->
        <g id="node18" class="node">
            <title>2_2</title>
            <polygon fill="DimGray" stroke="DimGray" points="264.96,-264.96 194.4,-264.96 194.4,-194.4 264.96,-194.4 264.96,-264.96"/>
        </g>
        <!-- 2_1&#45;&#45;2_2 -->
        <!-- 3_1 -->
        <g id="node23" class="node">
            <title>3_1</title>
            <polygon fill="DimGray" stroke="DimGray" points="192.96,-336.96 122.4,-336.96 122.4,-266.4 192.96,-266.4 192.96,-336.96"/>
        </g>
        <!-- 2_1&#45;&#45;3_1 -->
        <!-- 4_4 -->
        <g id="node4" class="node">
            <title>4_4</title>
            <polygon fill="DimGray" stroke="DimGray" points="408.96,-408.96 338.4,-408.96 338.4,-338.4 408.96,-338.4 408.96,-408.96"/>
        </g>
        <!-- 4_5 -->
        <g id="node27" class="node">
            <title>4_5</title>
            <polygon fill="LightGray" stroke="LightGray" points="480.96,-408.96 410.4,-408.96 410.4,-338.4 480.96,-338.4 480.96,-408.96"/>
        </g>
        <!-- 4_4&#45;&#45;4_5 -->
        <!-- 3_3 -->
        <g id="node5" class="node">
            <title>3_3</title>
            <polygon fill="DimGray" stroke="DimGray" points="336.96,-336.96 266.4,-336.96 266.4,-266.4 336.96,-266.4 336.96,-336.96"/>
        </g>
        <!-- 3_4 -->
        <g id="node8" class="node">
            <title>3_4</title>
            <polygon fill="LightGray" stroke="LightGray" points="408.96,-336.96 338.4,-336.96 338.4,-266.4 408.96,-266.4 408.96,-336.96"/>
        </g>
        <!-- 3_3&#45;&#45;3_4 -->
        <!-- 4_3 -->
        <g id="node11" class="node">
            <title>4_3</title>
            <polygon fill="LightGray" stroke="LightGray" points="336.96,-408.96 266.4,-408.96 266.4,-338.4 336.96,-338.4 336.96,-408.96"/>
        </g>
        <!-- 3_3&#45;&#45;4_3 -->
        <!-- 0_1 -->
        <g id="node6" class="node">
            <title>0_1</title>
            <polygon fill="LightGray" stroke="LightGray" points="192.96,-120.96 122.4,-120.96 122.4,-50.4 192.96,-50.4 192.96,-120.96"/>
        </g>
        <!-- 0_2 -->
        <g id="node21" class="node">
            <title>0_2</title>
            <polygon fill="DimGray" stroke="DimGray" points="264.96,-120.96 194.4,-120.96 194.4,-50.4 264.96,-50.4 264.96,-120.96"/>
        </g>
        <!-- 0_1&#45;&#45;0_2 -->
        <!-- 1_1 -->
        <g id="node25" class="node">
            <title>1_1</title>
            <polygon fill="DimGray" stroke="DimGray" points="192.96,-192.96 122.4,-192.96 122.4,-122.4 192.96,-122.4 192.96,-192.96"/>
        </g>
        <!-- 0_1&#45;&#45;1_1 -->
        <!-- 3_2 -->
        <g id="node7" class="node">
            <title>3_2</title>
            <polygon fill="LightGray" stroke="LightGray" points="264.96,-336.96 194.4,-336.96 194.4,-266.4 264.96,-266.4 264.96,-336.96"/>
        </g>
        <!-- 3_2&#45;&#45;3_3 -->
        <!-- 4_2 -->
        <g id="node10" class="node">
            <title>4_2</title>
            <polygon fill="DimGray" stroke="DimGray" points="264.96,-408.96 194.4,-408.96 194.4,-338.4 264.96,-338.4 264.96,-408.96"/>
        </g>
        <!-- 3_2&#45;&#45;4_2 -->
        <!-- 3_4&#45;&#45;4_4 -->
        <!-- 3_4&#45;&#45;3_5 -->
        <!-- 0_5 -->
        <g id="node9" class="node">
            <title>0_5</title>
            <polygon fill="LightGray" stroke="LightGray" points="480.96,-120.96 410.4,-120.96 410.4,-50.4 480.96,-50.4 480.96,-120.96"/>
        </g>
        <!-- 1_5 -->
        <g id="node19" class="node">
            <title>1_5</title>
            <polygon fill="DimGray" stroke="DimGray" points="480.96,-192.96 410.4,-192.96 410.4,-122.4 480.96,-122.4 480.96,-192.96"/>
        </g>
        <!-- 0_5&#45;&#45;1_5 -->
        <!-- 4_2&#45;&#45;4_3 -->
        <!-- 4_3&#45;&#45;4_4 -->
        <!-- 0_4&#45;&#45;0_5 -->
        <!-- 1_4 -->
        <g id="node20" class="node">
            <title>1_4</title>
            <polygon fill="LightGray" stroke="LightGray" points="408.96,-192.96 338.4,-192.96 338.4,-122.4 408.96,-122.4 408.96,-192.96"/>
        </g>
        <!-- 0_4&#45;&#45;1_4 -->
        <!-- 4_1 -->
        <g id="node13" class="node">
            <title>4_1</title>
            <polygon fill="LightGray" stroke="LightGray" points="192.96,-408.96 122.4,-408.96 122.4,-338.4 192.96,-338.4 192.96,-408.96"/>
        </g>
        <!-- 4_1&#45;&#45;4_2 -->
        <!-- 0_0 -->
        <g id="node14" class="node">
            <title>0_0</title>
            <polygon fill="DimGray" stroke="DimGray" points="120.96,-120.96 50.4,-120.96 50.4,-50.4 120.96,-50.4 120.96,-120.96"/>
        </g>
        <!-- 0_0&#45;&#45;0_1 -->
        <!-- 1_0 -->
        <g id="node17" class="node">
            <title>1_0</title>
            <polygon fill="LightGray" stroke="LightGray" points="120.96,-192.96 50.4,-192.96 50.4,-122.4 120.96,-122.4 120.96,-192.96"/>
        </g>
        <!-- 0_0&#45;&#45;1_0 -->
        <!-- 2_4 -->
        <g id="node15" class="node">
            <title>2_4</title>
            <polygon fill="DimGray" stroke="DimGray" points="408.96,-264.96 338.4,-264.96 338.4,-194.4 408.96,-194.4 408.96,-264.96"/>
        </g>
        <!-- 2_4&#45;&#45;2_5 -->
        <!-- 2_4&#45;&#45;3_4 -->
        <!-- 1_2 -->
        <g id="node16" class="node">
            <title>1_2</title>
            <polygon fill="LightGray" stroke="LightGray" points="264.96,-192.96 194.4,-192.96 194.4,-122.4 264.96,-122.4 264.96,-192.96"/>
        </g>
        <!-- 1_2&#45;&#45;2_2 -->
        <!-- 1_2&#45;&#45;1_3 -->
        <!-- 1_0&#45;&#45;1_1 -->
        <!-- 2_0 -->
        <g id="node26" class="node">
            <title>2_0</title>
            <polygon fill="DimGray" stroke="DimGray" points="120.96,-264.96 50.4,-264.96 50.4,-194.4 120.96,-194.4 120.96,-264.96"/>
        </g>
        <!-- 1_0&#45;&#45;2_0 -->
        <!-- 2_2&#45;&#45;3_2 -->
        <!-- 2_3 -->
        <g id="node28" class="node">
            <title>2_3</title>
            <polygon fill="LightGray" stroke="LightGray" points="336.96,-264.96 266.4,-264.96 266.4,-194.4 336.96,-194.4 336.96,-264.96"/>
        </g>
        <!-- 2_2&#45;&#45;2_3 -->
        <!-- 1_5&#45;&#45;2_5 -->
        <!-- 1_4&#45;&#45;2_4 -->
        <!-- 1_4&#45;&#45;1_5 -->
        <!-- 0_2&#45;&#45;0_3 -->
        <!-- 0_2&#45;&#45;1_2 -->
        <!-- 4_0 -->
        <g id="node22" class="node">
            <title>4_0</title>
            <polygon fill="DimGray" stroke="DimGray" points="120.96,-408.96 50.4,-408.96 50.4,-338.4 120.96,-338.4 120.96,-408.96"/>
        </g>
        <!-- 4_0&#45;&#45;4_1 -->
        <!-- 3_1&#45;&#45;3_2 -->
        <!-- 3_1&#45;&#45;4_1 -->
        <!-- 3_5&#45;&#45;4_5 -->
        <!-- 1_1&#45;&#45;2_1 -->
        <!-- 1_1&#45;&#45;1_2 -->
        <!-- 2_0&#45;&#45;2_1 -->
        <!-- 3_0 -->
        <g id="node30" class="node">
            <title>3_0</title>
            <polygon fill="LightGray" stroke="LightGray" points="120.96,-336.96 50.4,-336.96 50.4,-266.4 120.96,-266.4 120.96,-336.96"/>
        </g>
        <!-- 2_0&#45;&#45;3_0 -->
        <!-- 2_3&#45;&#45;3_3 -->
        <!-- 2_3&#45;&#45;2_4 -->
        <!-- 1_3&#45;&#45;1_4 -->
        <!-- 1_3&#45;&#45;2_3 -->
        <!-- 3_0&#45;&#45;4_0 -->
        <!-- 3_0&#45;&#45;3_1 -->
        <!-- c -->
        <g id="node31" class="node">
            <title>c</title>
            <polygon fill="none" stroke="none" points="264.96,-70.56 194.4,-70.56 194.4,0 264.96,0 264.96,-70.56"/>
            <text text-anchor="middle" x="229.68" y="-27.53" font-family="Times,serif" font-size="20.00" fill="Ivory">c</text>
        </g>
        <!-- d -->
        <g id="node38" class="node">
            <title>d</title>
            <polygon fill="none" stroke="none" points="336.96,-70.56 266.4,-70.56 266.4,0 336.96,0 336.96,-70.56"/>
            <text text-anchor="middle" x="301.68" y="-27.53" font-family="Times,serif" font-size="20.00" fill="Ivory">d</text>
        </g>
        <!-- c&#45;&#45;d -->
        <!-- f -->
        <g id="node32" class="node">
            <title>f</title>
            <polygon fill="none" stroke="none" points="480.96,-70.56 410.4,-70.56 410.4,0 480.96,0 480.96,-70.56"/>
            <text text-anchor="middle" x="445.68" y="-27.53" font-family="Times,serif" font-size="20.00" fill="Ivory">f</text>
        </g>
        <!-- e -->
        <g id="node33" class="node">
            <title>e</title>
            <polygon fill="none" stroke="none" points="408.96,-70.56 338.4,-70.56 338.4,0 408.96,0 408.96,-70.56"/>
            <text text-anchor="middle" x="373.68" y="-27.53" font-family="Times,serif" font-size="20.00" fill="Ivory">e</text>
        </g>
        <!-- e&#45;&#45;f -->
        <!-- 2 -->
        <g id="node34" class="node">
            <title>2</title>
            <polygon fill="none" stroke="none" points="70.56,-192.96 0,-192.96 0,-122.4 70.56,-122.4 70.56,-192.96"/>
            <text text-anchor="middle" x="35.28" y="-149.93" font-family="Times,serif" font-size="20.00" fill="Ivory">2</text>
        </g>
        <!-- 3 -->
        <g id="node41" class="node">
            <title>3</title>
            <polygon fill="none" stroke="none" points="70.56,-264.96 0,-264.96 0,-194.4 70.56,-194.4 70.56,-264.96"/>
            <text text-anchor="middle" x="35.28" y="-221.93" font-family="Times,serif" font-size="20.00" fill="Ivory">3</text>
        </g>
        <!-- 2&#45;&#45;3 -->
        <!-- b -->
        <g id="node35" class="node">
            <title>b</title>
            <polygon fill="none" stroke="none" points="192.96,-70.56 122.4,-70.56 122.4,0 192.96,0 192.96,-70.56"/>
            <text text-anchor="middle" x="157.68" y="-27.53" font-family="Times,serif" font-size="20.00" fill="Ivory">b</text>
        </g>
        <!-- b&#45;&#45;c -->
        <!-- 1 -->
        <g id="node36" class="node">
            <title>1</title>
            <polygon fill="none" stroke="none" points="70.56,-120.96 0,-120.96 0,-50.4 70.56,-50.4 70.56,-120.96"/>
            <text text-anchor="middle" x="35.28" y="-77.93" font-family="Times,serif" font-size="20.00" fill="Ivory">1</text>
        </g>
        <!-- 1&#45;&#45;2 -->
        <!-- 5 -->
        <g id="node37" class="node">
            <title>5</title>
            <polygon fill="none" stroke="none" points="70.56,-408.96 0,-408.96 0,-338.4 70.56,-338.4 70.56,-408.96"/>
            <text text-anchor="middle" x="35.28" y="-365.93" font-family="Times,serif" font-size="20.00" fill="Ivory">5</text>
        </g>
        <!-- d&#45;&#45;e -->
        <!-- 4 -->
        <g id="node39" class="node">
            <title>4</title>
            <polygon fill="none" stroke="none" points="70.56,-336.96 0,-336.96 0,-266.4 70.56,-266.4 70.56,-336.96"/>
            <text text-anchor="middle" x="35.28" y="-293.93" font-family="Times,serif" font-size="20.00" fill="Ivory">4</text>
        </g>
        <!-- 4&#45;&#45;5 -->
        <!-- a -->
        <g id="node40" class="node">
            <title>a</title>
            <polygon fill="none" stroke="none" points="120.96,-70.56 50.4,-70.56 50.4,0 120.96,0 120.96,-70.56"/>
            <text text-anchor="middle" x="85.68" y="-27.53" font-family="Times,serif" font-size="20.00" fill="Ivory">a</text>
        </g>
        <!-- a&#45;&#45;b -->
        <!-- 3&#45;&#45;4 -->
        <!-- p0 -->
        <g id="node42" class="node">
            <title>p0</title>
            <polygon fill="none" stroke="none" points="192.96,-192.96 122.4,-192.96 122.4,-122.4 192.96,-122.4 192.96,-192.96"/>
            <text text-anchor="middle" x="157.68" y="-132.43" font-family="Times,serif" font-size="70.00">♚</text>
        </g>
        <!-- p1 -->
        <g id="node43" class="node">
            <title>p1</title>
            <polygon fill="none" stroke="none" points="336.96,-408.96 266.4,-408.96 266.4,-338.4 336.96,-338.4 336.96,-408.96"/>
            <text text-anchor="middle" x="301.68" y="-348.43" font-family="Times,serif" font-size="70.00" fill="White">♚</text>
        </g>
        <!-- p2 -->
        <g id="node44" class="node">
            <title>p2</title>
            <polygon fill="none" stroke="none" points="336.96,-408.96 266.4,-408.96 266.4,-338.4 336.96,-338.4 336.96,-408.96"/>
            <text text-anchor="middle" x="301.68" y="-348.43" font-family="Times,serif" font-size="70.00" fill="Gray">♔</text>
        </g>
        <!-- p3 -->
        <g id="node45" class="node">
            <title>p3</title>
            <polygon fill="none" stroke="none" points="480.96,-336.96 410.4,-336.96 410.4,-266.4 480.96,-266.4 480.96,-336.96"/>
            <text text-anchor="middle" x="445.68" y="-276.43" font-family="Times,serif" font-size="70.00">♜</text>
        </g>
    </g>
</svg>
